<?xml version="1.0" encoding="UTF-8" standalone="no"?>
<!DOCTYPE svg PUBLIC "-//W3C//DTD SVG 1.1//EN" "http://www.w3.org/Graphics/SVG/1.1/DTD/svg11.dtd">
<svg xmlns="http://www.w3.org/2000/svg" version="1.1" viewBox="0.00 0.00 550.00 300.00">
<g stroke-width="2.00" fill="none" stroke-linecap="butt">
<path stroke="#fa9c1b" vector-effect="non-scaling-stroke" d="
  M 94.52 125.12
  L 94.57 183.23"
/>
<path stroke="#de4025" vector-effect="non-scaling-stroke" d="
  M 130.49 125.10
  L 130.46 183.25"
/>
</g>
<path fill="#ffffff" d="
  M 228.38 41.49
  L 228.39 9.81
  A 0.81 0.80 -90.0 0 1 229.19 9.00
  L 259.30 9.01
  Q 259.84 9.01 259.84 9.55
  L 259.86 41.49
  Q 259.86 42.07 260.43 42.07
  Q 279.31 42.23 297.98 42.09
  Q 303.81 42.05 307.84 46.68
  Q 338.02 81.46 368.33 116.12
  C 372.94 121.39 375.99 126.29 372.69 132.66
  Q 369.38 139.06 361.25 139.05
  Q 291.12 139.01 221.00 138.99
  Q 216.05 138.99 212.34 135.16
  Q 165.99 87.38 119.65 39.61
  Q 119.12 39.06 118.58 39.60
  Q 71.26 86.87 23.98 134.20
  C 10.99 147.21 -4.98 129.62 6.07 118.57
  Q 56.51 68.16 106.92 17.72
  Q 112.71 11.93 115.87 10.85
  C 122.21 8.70 126.39 12.28 130.93 17.05
  Q 142.76 29.49 154.81 41.73
  Q 155.19 42.12 155.75 42.12
  L 227.75 42.12
  A 0.63 0.63 0.0 0 0 228.38 41.49
  Z"
/>
<path fill="#fdcd07" d="
  M 94.52 125.12
  L 94.57 183.23
  L 60.25 183.20
  Q 59.79 183.20 59.79 182.74
  L 59.79 125.52
  Q 59.79 125.09 60.22 125.09
  L 94.52 125.12
  Z"
/>
<path fill="#f66b2e" d="
  M 94.52 125.12
  L 130.49 125.10
  L 130.46 183.25
  L 94.57 183.23
  L 94.52 125.12
  Z"
/>
<path fill="#c6151c" d="
  M 130.49 125.10
  L 165.31 125.11
  Q 165.93 125.11 165.93 125.73
  L 165.96 182.97
  Q 165.96 183.36 165.56 183.36
  L 130.46 183.25
  L 130.49 125.10
  Z"
/>
<path fill="#c6151c" d="
  M 202.99 162.32
  A 0.44 0.44 0.0 0 0 202.56 162.76
  L 202.53 192.50
  A 1.51 1.50 -83.5 0 1 200.69 193.97
  L 198.86 193.53
  Q 198.23 193.39 198.23 192.74
  L 198.24 163.03
  A 0.72 0.71 0.8 0 0 197.53 162.31
  L 187.40 162.25
  Q 186.04 162.24 185.79 160.91
  Q 185.29 158.31 187.75 158.25
  Q 200.19 157.97 213.20 157.98
  A 1.32 1.32 0.0 0 1 214.48 159.60
  L 214.00 161.65
  A 0.71 0.71 0.0 0 1 213.31 162.20
  L 202.99 162.32
  Z"
/>
<rect fill="#c6151c" x="-2.08" y="-17.91" transform="translate(235.07,176.07) rotate(0.1)" width="4.16" height="35.82" rx="1.61"/>
<path fill="#c6151c" d="
  M 263.36 172.91
  A 0.80 0.80 0.0 0 0 264.16 173.71
  L 274.73 173.72
  A 1.52 1.51 -5.3 0 1 276.22 174.95
  Q 276.73 177.63 274.44 177.78
  Q 269.47 178.08 264.31 178.05
  A 0.92 0.92 0.0 0 0 263.38 178.98
  L 263.40 188.89
  A 0.82 0.82 0.0 0 0 264.22 189.71
  L 281.05 189.73
  A 1.22 1.20 -18.4 0 1 282.01 190.20
  Q 282.95 191.38 282.42 192.95
  A 0.97 0.97 0.0 0 1 281.88 193.53
  Q 280.81 193.98 279.25 193.99
  Q 270.09 194.05 261.06 194.01
  A 2.04 2.03 -89.9 0 1 259.04 191.97
  L 259.02 159.83
  A 1.84 1.83 -90.0 0 1 260.85 157.99
  L 280.44 158.00
  Q 282.61 158.00 282.59 160.16
  Q 282.57 162.41 280.25 162.40
  Q 272.13 162.36 264.06 162.26
  A 0.68 0.67 -89.2 0 0 263.38 162.93
  L 263.36 172.91
  Z"
/>
<path fill="#c6151c" d="
  M 326.97 184.22
  Q 326.92 173.09 326.99 161.54
  Q 327.00 159.57 327.03 159.48
  Q 327.36 158.50 328.96 158.06
  A 1.75 1.75 0.0 0 1 331.18 159.75
  L 331.12 192.26
  A 1.65 1.64 -0.5 0 1 329.50 193.90
  Q 327.98 193.93 326.90 192.59
  Q 317.07 180.29 307.07 167.59
  A 0.42 0.41 -65.0 0 0 306.33 167.86
  Q 306.68 180.04 306.01 192.49
  Q 305.92 194.21 303.80 193.87
  Q 302.00 193.59 302.00 191.76
  L 302.03 160.27
  A 2.19 2.14 -23.9 0 1 302.62 158.79
  C 303.95 157.39 305.55 158.29 306.56 159.57
  Q 316.25 171.85 325.99 184.55
  A 0.55 0.55 0.0 0 0 326.97 184.22
  Z"
/>
<path fill="#c6151c" d="
  M 353.11 160.20
  A 2.29 2.29 0.0 0 1 355.40 157.92
  L 369.61 157.97
  A 12.04 11.58 0.2 0 1 381.61 169.59
  L 381.57 182.55
  A 12.04 11.58 0.2 0 1 369.49 194.09
  L 355.28 194.04
  A 2.29 2.29 0.0 0 1 353.00 191.74
  L 353.11 160.20
  Z
  M 357.38 162.94
  L 357.34 189.06
  A 0.62 0.62 0.0 0 0 357.96 189.68
  L 369.59 189.70
  A 7.63 6.51 0.1 0 0 377.23 183.21
  L 377.25 168.87
  A 7.63 6.51 0.1 0 0 369.63 162.34
  L 358.00 162.32
  A 0.62 0.62 0.0 0 0 357.38 162.94
  Z"
/>
<path fill="#c6151c" d="
  M 421.99 185.25
  L 406.74 185.26
  A 1.00 0.99 -78.2 0 0 405.83 185.86
  Q 404.44 188.97 403.23 192.12
  C 402.56 193.85 401.70 194.27 399.99 193.61
  A 1.75 1.75 0.0 0 1 399.00 191.32
  Q 405.26 175.85 411.82 159.85
  Q 412.55 158.07 414.43 158.05
  A 2.33 2.33 0.0 0 1 416.60 159.49
  L 429.64 190.98
  A 2.11 2.10 -12.6 0 1 427.79 193.89
  Q 426.02 193.98 425.42 192.26
  Q 424.27 189.00 422.88 185.84
  A 0.97 0.97 0.0 0 0 421.99 185.25
  Z
  M 407.94 180.39
  A 0.47 0.47 0.0 0 0 408.38 181.03
  L 420.12 180.99
  A 0.47 0.47 0.0 0 0 420.55 180.34
  L 414.63 165.99
  A 0.47 0.47 0.0 0 0 413.76 165.99
  L 407.94 180.39
  Z"
/>
<path fill="#c6151c" d="
  M 453.56 188.92
  Q 462.11 190.87 468.99 188.99
  C 471.53 188.29 471.20 182.46 470.90 180.77
  C 469.84 174.79 457.16 179.00 452.35 176.00
  C 448.60 173.66 447.84 167.55 449.12 163.84
  C 451.58 156.72 459.49 157.82 465.48 157.95
  Q 472.47 158.10 474.51 164.76
  A 1.76 1.76 0.0 0 1 473.18 167.00
  Q 471.84 167.28 470.87 166.61
  Q 470.46 166.33 470.34 165.85
  C 469.44 162.12 466.61 162.47 462.91 162.29
  Q 459.32 162.11 455.75 162.73
  C 451.71 163.44 451.65 172.49 456.51 172.73
  Q 461.49 172.97 466.48 173.12
  C 478.70 173.50 478.56 193.17 466.74 193.98
  C 458.96 194.52 448.32 195.39 447.18 186.16
  Q 446.97 184.43 448.68 184.09
  C 452.60 183.30 450.73 188.27 453.56 188.92
  Z"
/>
<rect fill="#ffffff" x="59.73" y="186.76" width="106.76" height="11.24" rx="0.46"/>
<path fill="#ffffff" d="
  M 123.11 282.71
  C 118.14 289.65 108.41 289.36 103.53 282.51
  C 98.63 275.62 102.71 265.96 103.67 258.42
  C 104.65 250.74 105.72 230.84 100.51 224.61
  C 96.48 219.80 86.29 220.59 80.49 220.19
  Q 71.70 219.58 68.25 217.95
  Q 59.56 213.85 59.66 202.33
  Q 59.66 201.76 60.23 201.76
  L 166.02 201.76
  A 0.65 0.65 0.0 0 1 166.67 202.42
  C 166.44 223.12 146.26 219.77 133.23 221.06
  C 124.13 221.97 123.21 228.43 122.64 236.62
  Q 121.50 252.89 125.61 269.73
  C 126.69 274.16 125.80 278.95 123.11 282.71
  Z
  M 118.27 276.46
  A 4.41 4.41 0.0 0 0 113.86 272.05
  A 4.41 4.41 0.0 0 0 109.45 276.46
  A 4.41 4.41 0.0 0 0 113.86 280.87
  A 4.41 4.41 0.0 0 0 118.27 276.46
  Z"
/>
<path fill="#ffffff" d="
  M 284.26 262.30
  A 15.69 15.69 0.0 0 1 268.57 277.99
  L 263.61 277.99
  A 15.69 15.69 0.0 0 1 247.92 262.30
  L 247.92 227.88
  A 15.69 15.69 0.0 0 1 263.61 212.19
  L 268.57 212.19
  A 15.69 15.69 0.0 0 1 284.26 227.88
  L 284.26 262.30
  Z
  M 278.01 227.95
  A 9.96 9.96 0.0 0 0 268.05 217.99
  L 264.21 217.99
  A 9.96 9.96 0.0 0 0 254.25 227.95
  L 254.25 262.29
  A 9.96 9.96 0.0 0 0 264.21 272.25
  L 268.05 272.25
  A 9.96 9.96 0.0 0 0 278.01 262.29
  L 278.01 227.95
  Z"
/>
<path fill="#ffffff" d="
  M 195.71 237.49
  L 195.78 276.36
  A 0.63 0.63 0.0 0 1 195.14 276.99
  L 189.84 276.93
  Q 189.25 276.93 189.25 276.34
  L 189.25 214.73
  A 2.03 2.03 0.0 0 1 193.18 214.02
  L 211.88 264.56
  A 0.26 0.25 -45.6 0 0 212.36 264.55
  L 230.99 214.03
  A 2.07 2.07 0.0 0 1 235.00 214.74
  L 235.01 276.32
  Q 235.01 276.99 234.34 276.99
  L 229.34 276.97
  Q 228.72 276.97 228.72 276.34
  L 228.68 237.60
  A 0.23 0.23 0.0 0 0 228.23 237.52
  L 214.53 275.49
  A 2.53 2.53 0.0 0 1 209.78 275.50
  L 195.89 237.46
  A 0.09 0.09 0.0 0 0 195.71 237.49
  Z"
/>
<path fill="#ffffff" d="
  M 303.76 231.74
  L 303.75 276.36
  A 0.61 0.61 0.0 0 1 303.14 276.97
  L 297.84 276.94
  Q 297.25 276.94 297.25 276.34
  L 297.25 214.80
  A 2.11 2.11 0.0 0 1 301.20 213.75
  L 326.86 258.64
  Q 327.29 259.39 327.29 258.52
  L 327.23 213.80
  Q 327.23 213.09 327.95 213.08
  L 333.09 213.05
  Q 333.88 213.05 333.88 213.84
  L 333.87 275.21
  A 2.20 2.19 30.1 0 1 329.77 276.30
  L 304.12 231.64
  Q 303.76 231.01 303.76 231.74
  Z"
/>
<path fill="#ffffff" d="
  M 363.39 276.94
  L 358.36 277.01
  A 0.63 0.63 0.0 0 1 357.72 276.38
  L 357.70 219.66
  A 0.63 0.63 0.0 0 0 357.08 219.03
  L 342.92 218.92
  A 0.63 0.63 0.0 0 1 342.30 218.27
  L 342.41 213.63
  A 0.63 0.63 0.0 0 1 343.04 213.02
  L 378.42 213.01
  A 0.63 0.63 0.0 0 1 379.05 213.61
  L 379.24 218.26
  A 0.63 0.63 0.0 0 1 378.62 218.91
  L 364.63 219.02
  A 0.63 0.63 0.0 0 0 364.00 219.65
  L 364.01 276.31
  A 0.63 0.63 0.0 0 1 363.39 276.94
  Z"
/>
<path fill="#ffffff" d="
  M 391.42 262.85
  L 387.71 276.37
  Q 387.53 277.02 386.86 277.01
  L 381.67 276.92
  Q 380.97 276.91 381.17 276.23
  L 399.23 214.49
  A 2.27 2.27 0.0 0 1 403.58 214.48
  L 421.75 276.23
  Q 421.97 276.97 421.20 276.97
  L 416.02 276.97
  Q 415.41 276.96 415.24 276.38
  L 411.48 262.92
  A 0.84 0.83 -7.7 0 0 410.67 262.31
  L 392.12 262.31
  A 0.74 0.72 -82.1 0 0 391.42 262.85
  Z
  M 393.42 256.02
  A 0.32 0.32 0.0 0 0 393.73 256.43
  L 409.25 256.40
  A 0.32 0.32 0.0 0 0 409.55 255.99
  L 401.75 228.86
  A 0.32 0.32 0.0 0 0 401.13 228.86
  L 393.42 256.02
  Z"
/>
<path fill="#ffffff" d="
  M 435.89 231.23
  L 435.83 276.13
  Q 435.83 276.96 435.00 276.96
  L 430.36 276.99
  Q 429.72 276.99 429.72 276.36
  L 429.69 214.72
  A 1.96 1.96 0.0 0 1 433.35 213.75
  L 459.05 258.67
  A 0.34 0.34 0.0 0 0 459.68 258.50
  L 459.68 213.61
  Q 459.68 213.01 460.27 213.02
  L 465.32 213.10
  Q 466.01 213.12 466.01 213.81
  L 466.00 275.23
  A 2.18 2.18 0.0 0 1 461.93 276.31
  L 436.07 231.18
  Q 435.89 230.86 435.89 231.23
  Z"
/>
<path fill="#ffffff" d="
  M 503.28 262.30
  L 484.55 262.30
  A 0.67 0.65 7.4 0 0 483.91 262.78
  L 480.24 276.33
  Q 480.07 276.96 479.42 276.96
  L 474.30 276.96
  Q 473.44 276.96 473.68 276.14
  L 491.76 214.39
  A 2.23 2.22 45.0 0 1 496.03 214.39
  L 514.29 276.36
  Q 514.48 277.00 513.81 277.00
  L 508.43 276.94
  Q 507.90 276.94 507.75 276.42
  L 503.94 262.80
  A 0.69 0.68 -7.8 0 0 503.28 262.30
  Z
  M 486.23 256.44
  L 501.44 256.42
  Q 502.14 256.42 501.95 255.74
  L 494.12 228.28
  Q 493.97 227.77 493.83 228.28
  L 485.90 256.01
  A 0.34 0.34 0.0 0 0 486.23 256.44
  Z"
/>
</svg>
