<?xml version="1.0" encoding="UTF-8" standalone="no"?>
<!DOCTYPE svg PUBLIC "-//W3C//DTD SVG 1.1//EN" "http://www.w3.org/Graphics/SVG/1.1/DTD/svg11.dtd">
<svg xmlns="http://www.w3.org/2000/svg" version="1.1" viewBox="0.00 0.00 550.00 300.00">
<g stroke-width="2.00" fill="none" stroke-linecap="butt">
<path stroke="#fa9c1b" vector-effect="non-scaling-stroke" d="
  M 95.74 123.61
  L 95.76 181.72"
/>
<path stroke="#df4025" vector-effect="non-scaling-stroke" d="
  M 131.06 123.61
  L 131.03 181.71"
/>
</g>
<path fill="#262424" d="
  M 228.89 39.92
  L 228.88 8.15
  Q 228.88 7.51 229.52 7.51
  L 259.80 7.49
  A 0.56 0.55 -90.0 0 1 260.35 8.05
  L 260.35 39.77
  A 0.86 0.86 0.0 0 0 261.21 40.63
  Q 280.04 40.54 299.00 40.63
  C 303.45 40.65 305.98 42.82 309.06 46.34
  Q 340.06 81.76 371.10 117.16
  C 376.41 123.22 375.35 132.86 367.69 136.29
  Q 365.05 137.48 359.13 137.48
  Q 290.31 137.50 221.50 137.49
  Q 216.11 137.49 212.14 133.36
  Q 166.11 85.53 120.26 38.13
  A 0.83 0.83 0.0 0 0 119.07 38.12
  Q 71.22 85.95 23.72 133.47
  C 20.25 136.94 15.97 138.29 11.20 136.85
  C 4.93 134.94 1.30 127.47 3.74 121.40
  Q 4.74 118.92 8.76 114.90
  Q 58.10 65.57 107.42 16.23
  Q 113.13 10.52 116.00 9.45
  C 121.99 7.21 126.32 10.25 130.67 14.78
  Q 142.95 27.58 155.24 40.23
  A 1.33 1.32 -22.1 0 0 156.19 40.63
  L 228.20 40.61
  A 0.69 0.69 0.0 0 0 228.89 39.92
  Z"
/>
<path fill="#fdcd07" d="
  M 95.74 123.61
  L 95.76 181.72
  L 60.81 181.77
  Q 60.26 181.77 60.26 181.22
  L 60.24 124.25
  Q 60.24 123.62 60.86 123.62
  L 95.74 123.61
  Z"
/>
<path fill="#f66b2e" d="
  M 131.06 123.61
  L 131.03 181.71
  L 95.76 181.72
  L 95.74 123.61
  L 131.06 123.61
  Z"
/>
<path fill="#c7151c" d="
  M 131.03 181.71
  L 131.06 123.61
  L 165.77 123.59
  A 0.63 0.63 0.0 0 1 166.40 124.22
  L 166.42 181.25
  Q 166.42 181.73 165.93 181.73
  L 131.03 181.71
  Z"
/>
<path fill="#c7151c" d="
  M 198.22 160.92
  Q 191.43 160.38 189.01 160.76
  Q 186.53 161.16 186.05 158.90
  A 1.95 1.95 0.0 0 1 187.94 156.54
  Q 199.62 156.44 211.86 156.54
  C 214.03 156.56 215.43 156.05 215.59 159.05
  A 1.63 1.63 0.0 0 1 213.96 160.77
  L 203.73 160.72
  A 0.68 0.68 0.0 0 0 203.04 161.40
  Q 203.12 175.59 203.02 189.70
  C 203.00 191.53 202.39 192.92 200.27 192.41
  A 1.98 1.97 -83.3 0 1 198.76 190.49
  L 198.75 161.49
  Q 198.75 160.96 198.22 160.92
  Z"
/>
<rect fill="#c7151c" x="233.48" y="156.51" width="4.20" height="35.96" rx="1.73"/>
<path fill="#c7151c" d="
  M 263.90 161.30
  L 263.90 171.71
  Q 263.90 172.26 264.46 172.26
  L 274.90 172.24
  Q 276.71 172.24 276.65 174.05
  Q 276.57 176.68 274.25 176.63
  Q 269.36 176.51 264.47 176.44
  Q 263.89 176.44 263.89 177.02
  L 263.93 187.72
  Q 263.94 188.25 264.47 188.25
  L 281.24 188.24
  A 1.78 1.78 0.0 0 1 283.02 190.08
  C 282.96 191.88 282.40 192.42 280.57 192.45
  Q 270.69 192.62 261.22 192.41
  A 1.62 1.62 0.0 0 1 259.63 190.79
  L 259.68 157.73
  A 1.25 1.24 -0.0 0 1 260.93 156.49
  Q 271.14 156.48 281.00 156.67
  Q 283.38 156.71 283.00 159.24
  A 1.77 1.76 4.1 0 1 281.25 160.75
  L 264.45 160.75
  Q 263.90 160.75 263.90 161.30
  Z"
/>
<path fill="#c7151c" d="
  M 326.55 183.10
  Q 327.49 184.27 327.49 182.78
  L 327.48 158.49
  A 1.99 1.98 88.0 0 1 329.32 156.51
  Q 331.51 156.35 331.53 158.50
  Q 331.69 174.17 331.73 189.83
  A 2.27 2.24 55.9 0 1 331.58 190.64
  Q 330.67 193.06 328.97 192.40
  Q 328.36 192.16 327.70 191.34
  Q 317.54 178.70 307.36 165.64
  A 0.31 0.31 0.0 0 0 306.80 165.84
  Q 306.97 178.07 306.70 190.50
  Q 306.68 191.42 306.56 191.60
  A 2.16 2.15 -45.6 0 1 303.03 191.64
  Q 302.45 190.83 302.46 189.13
  Q 302.54 173.69 302.71 158.37
  A 1.88 1.88 0.0 0 1 304.62 156.51
  Q 305.89 156.53 306.89 157.85
  Q 316.76 170.89 326.55 183.10
  Z"
/>
<path fill="#c7151c" d="
  M 353.64 158.54
  A 2.06 2.06 0.0 0 1 355.70 156.48
  L 370.41 156.50
  A 11.71 11.70 0.1 0 1 382.10 168.22
  L 382.08 180.84
  A 11.71 11.70 0.1 0 1 370.35 192.52
  L 355.64 192.50
  A 2.06 2.06 0.0 0 1 353.58 190.44
  L 353.64 158.54
  Z
  M 357.91 161.31
  L 357.87 187.65
  A 0.55 0.55 0.0 0 0 358.42 188.20
  L 370.32 188.22
  A 7.41 6.82 0.1 0 0 377.74 181.42
  L 377.76 167.62
  A 7.41 6.82 0.1 0 0 370.36 160.78
  L 358.46 160.76
  A 0.55 0.55 0.0 0 0 357.91 161.31
  Z"
/>
<path fill="#c7151c" d="
  M 413.69 156.86
  A 1.91 1.85 15.7 0 1 414.32 156.52
  Q 416.25 155.93 417.08 157.96
  Q 423.67 173.89 430.10 189.63
  A 2.00 1.99 64.7 0 1 429.21 192.14
  Q 427.18 193.23 426.25 191.08
  Q 424.76 187.61 423.32 184.14
  Q 423.16 183.75 422.73 183.75
  L 407.20 183.73
  A 1.20 1.19 9.6 0 0 406.07 184.53
  Q 404.93 187.80 403.47 191.16
  C 402.95 192.35 401.98 192.74 400.82 192.29
  A 2.09 2.08 21.7 0 1 399.64 189.56
  Q 405.93 174.08 412.44 158.40
  Q 412.75 157.65 413.69 156.86
  Z
  M 408.31 179.10
  A 0.32 0.32 0.0 0 0 408.60 179.54
  L 420.89 179.47
  A 0.32 0.32 0.0 0 0 421.19 179.03
  L 414.96 163.96
  A 0.32 0.32 0.0 0 0 414.37 163.96
  L 408.31 179.10
  Z"
/>
<path fill="#c7151c" d="
  M 469.16 161.55
  C 465.96 160.68 454.78 159.09 453.64 163.75
  C 452.82 167.09 453.24 171.43 457.67 171.46
  C 464.16 171.51 473.32 169.91 475.49 178.22
  C 477.13 184.49 474.97 191.85 467.23 192.37
  C 459.63 192.87 449.42 193.98 447.77 185.28
  C 447.46 183.62 448.74 181.67 450.56 182.73
  C 452.98 184.13 451.35 187.26 455.33 187.79
  Q 460.09 188.42 466.50 188.17
  C 471.73 187.96 472.51 183.10 471.26 179.07
  C 469.52 173.50 458.94 176.79 454.57 175.14
  Q 448.02 172.66 449.22 164.20
  C 450.48 155.29 459.07 156.38 465.73 156.38
  Q 471.87 156.37 474.32 161.80
  Q 475.92 165.33 472.76 165.58
  A 1.70 1.69 -14.9 0 1 471.08 164.61
  L 469.93 162.20
  Q 469.70 161.70 469.16 161.55
  Z"
/>
<rect fill="#262424" x="60.23" y="185.30" width="106.74" height="11.16" rx="0.87"/>
<path fill="#262424" d="
  M 166.77 200.27
  A 0.38 0.38 0.0 0 1 167.15 200.65
  C 167.26 231.17 127.73 209.27 124.24 227.24
  C 121.76 240.08 122.89 252.31 125.35 265.06
  Q 126.68 271.89 126.37 274.47
  C 124.23 292.46 99.03 288.70 101.91 270.26
  Q 102.79 264.62 103.72 258.97
  Q 106.04 244.68 103.73 230.50
  Q 102.92 225.58 101.24 223.34
  C 97.50 218.36 87.17 219.11 81.51 218.72
  Q 72.53 218.10 69.26 216.72
  Q 60.04 212.82 60.26 200.94
  Q 60.27 200.28 60.93 200.28
  L 166.77 200.27
  Z
  M 118.74 274.93
  A 4.39 4.39 0.0 0 0 114.35 270.54
  A 4.39 4.39 0.0 0 0 109.96 274.93
  A 4.39 4.39 0.0 0 0 114.35 279.32
  A 4.39 4.39 0.0 0 0 118.74 274.93
  Z"
/>
<path fill="#262424" d="
  M 284.5193 260.6664
  A 15.52 15.52 0.0 0 1 269.0808 276.2674
  L 264.4409 276.2917
  A 15.52 15.52 0.0 0 1 248.8398 260.8532
  L 248.6607 226.6336
  A 15.52 15.52 0.0 0 1 264.0992 211.0326
  L 268.7391 211.0083
  A 15.52 15.52 0.0 0 1 284.3402 226.4468
  L 284.5193 260.6664
  Z
  M 278.8097 226.3773
  A 10.12 10.12 0.0 0 0 268.6545 216.2927
  L 264.3945 216.3076
  A 10.12 10.12 0.0 0 0 254.3099 226.4629
  L 254.4303 260.9427
  A 10.12 10.12 0.0 0 0 264.5855 271.0273
  L 268.8455 271.0124
  A 10.12 10.12 0.0 0 0 278.9301 260.8571
  L 278.8097 226.3773
  Z"
/>
<path fill="#262424" d="
  M 195.93 233.12
  Q 195.83 233.15 195.71 233.25
  Q 195.70 233.26 195.70 233.27
  Q 195.71 254.09 195.72 274.92
  Q 195.72 275.47 195.16 275.48
  L 190.88 275.48
  Q 190.28 275.48 190.28 274.88
  L 190.30 212.83
  A 1.48 1.48 0.0 0 1 193.16 212.32
  L 212.38 264.23
  Q 212.62 264.89 212.87 264.23
  L 231.88 212.53
  A 1.67 1.67 0.0 0 1 233.88 211.50
  L 234.50 211.67
  Q 235.12 211.84 235.12 212.49
  L 235.13 274.92
  Q 235.13 275.47 234.58 275.48
  L 229.99 275.50
  Q 229.48 275.50 229.48 274.99
  L 229.46 234.20
  Q 229.46 232.73 228.96 234.11
  L 214.36 274.60
  A 1.83 1.83 0.0 0 1 210.92 274.61
  Q 203.78 254.99 196.45 234.74
  Q 196.18 234.02 196.13 233.25
  Q 196.12 233.05 195.93 233.12
  Z"
/>
<path fill="#262424" d="
  M 327.77 259.09
  A 0.27 0.27 0.0 0 0 328.30 259.01
  L 328.28 212.24
  Q 328.28 211.76 328.76 211.75
  L 333.23 211.67
  A 0.68 0.67 89.2 0 1 333.92 212.35
  L 333.97 274.05
  A 1.74 1.74 0.0 0 1 330.72 274.91
  L 303.88 227.96
  Q 303.75 227.73 303.75 227.99
  L 303.71 274.88
  Q 303.71 275.48 303.12 275.48
  L 298.89 275.49
  Q 298.28 275.49 298.28 274.89
  L 298.26 212.73
  A 1.21 1.20 -88.4 0 1 299.53 211.52
  C 301.20 211.62 301.73 213.09 302.47 214.38
  Q 315.00 236.20 327.34 258.13
  Q 327.64 258.68 327.77 259.09
  Z"
/>
<path fill="#262424" d="
  M 411.57 260.57
  L 392.19 260.59
  A 0.68 0.68 0.0 0 0 391.54 261.08
  L 387.77 274.83
  Q 387.59 275.50 386.89 275.50
  L 382.44 275.47
  Q 381.85 275.47 382.01 274.90
  L 400.20 212.75
  A 1.76 1.76 0.0 0 1 403.58 212.75
  L 421.86 274.91
  Q 422.02 275.47 421.44 275.47
  L 416.95 275.49
  Q 416.35 275.49 416.18 274.91
  L 412.27 261.09
  Q 412.12 260.57 411.57 260.57
  Z
  M 394.01 255.18
  L 409.95 255.17
  Q 410.62 255.17 410.44 254.53
  L 402.02 224.98
  Q 401.93 224.66 401.84 224.98
  L 393.49 254.50
  A 0.54 0.53 8.1 0 0 394.01 255.18
  Z"
/>
<path fill="#262424" d="
  M 459.65 258.68
  Q 460.47 260.22 460.47 258.47
  L 460.48 212.37
  Q 460.48 211.71 461.13 211.71
  L 465.37 211.67
  Q 466.09 211.66 466.09 212.38
  L 466.12 274.25
  A 1.65 1.65 0.0 0 1 463.04 275.08
  Q 450.05 252.59 437.16 229.92
  C 436.79 229.27 436.61 228.41 436.28 227.62
  Q 435.89 226.70 435.89 227.69
  L 435.96 274.87
  Q 435.96 275.45 435.38 275.46
  L 431.12 275.51
  Q 430.47 275.52 430.47 274.87
  L 430.48 212.75
  A 1.52 1.51 -60.0 0 1 433.31 211.99
  C 442.18 227.48 451.27 242.92 459.65 258.68
  Z"
/>
<path fill="#262424" d="
  M 484.03 261.20
  L 480.23 274.97
  Q 480.08 275.51 479.52 275.51
  L 475.03 275.50
  Q 474.32 275.50 474.52 274.81
  L 492.72 212.74
  A 1.75 1.74 45.0 0 1 496.07 212.74
  L 514.37 274.98
  Q 514.52 275.49 513.99 275.49
  L 509.31 275.50
  Q 508.85 275.50 508.72 275.05
  L 504.76 260.99
  A 0.55 0.55 0.0 0 0 504.23 260.58
  L 484.85 260.58
  A 0.86 0.85 -81.8 0 0 484.03 261.20
  Z
  M 494.31 224.96
  L 486.04 254.41
  A 0.66 0.65 -82.2 0 0 486.67 255.24
  L 502.30 255.17
  A 0.64 0.64 0.0 0 0 502.91 254.35
  L 494.48 224.96
  Q 494.39 224.65 494.31 224.96
  Z"
/>
<path fill="#262424" d="
  M 364.10 217.87
  L 364.14 274.87
  A 0.60 0.60 0.0 0 1 363.54 275.47
  L 359.07 275.51
  A 0.60 0.60 0.0 0 1 358.47 274.91
  L 358.48 217.87
  A 0.60 0.60 0.0 0 0 357.88 217.27
  L 343.93 217.31
  A 0.60 0.60 0.0 0 1 343.32 216.72
  L 343.21 212.32
  A 0.60 0.60 0.0 0 1 343.81 211.70
  L 378.65 211.72
  A 0.60 0.60 0.0 0 1 379.25 212.32
  L 379.23 216.70
  A 0.60 0.60 0.0 0 1 378.63 217.30
  L 364.70 217.27
  A 0.60 0.60 0.0 0 0 364.10 217.87
  Z"
/>
</svg>
